<svg xmlns="http://www.w3.org/2000/svg" viewBox="0 0 220 50" width="220" height="50">
  <g transform="translate(0, 5)">
    <path d="M37.6,0H2.4C1.1,0,0,1.1,0,2.4v35.3C0,39,1.1,40,2.4,40h35.3c1.3,0,2.4-1.1,2.4-2.4V2.4C40,1.1,38.9,0,37.6,0z M11.9,34.1H5.9V14.9h6V34.1z M8.9,12.2c-1.9,0-3.4-1.5-3.4-3.4c0-1.9,1.5-3.4,3.4-3.4c1.9,0,3.4,1.5,3.4,3.4C12.3,10.7,10.8,12.2,8.9,12.2z M34.1,34.1h-6V24.6c0-2.3,0-5.2-3.2-5.2c-3.2,0-3.7,2.5-3.7,5.1v9.6h-6V14.9h5.8v2.6h0.1c0.8-1.5,2.8-3.1,5.6-3.1c6,0,7.1,3.9,7.1,9.1V34.1z" fill="#FFFFFF"/>
  </g>

  <text x="55" y="25" dominant-baseline="central" font-family="'Helvetica Neue', Helvetica, Arial, sans-serif" font-size="42" fill="#FFFFFF">
    <tspan font-weight="400">Linked</tspan><tspan font-weight="700">in</tspan>
  </text>
</svg>